<?xml version="1.0" encoding="utf-8"?>
<svg viewBox="0 0 488.876 409.898" xmlns="http://www.w3.org/2000/svg" width="478" height="416">
  <g fill="none" fill-rule="evenodd" transform="matrix(1, 0, 0, 1, 4.223581, 20.233507)">
    <mask id="b" fill="#fff">
      <rect width="350" height="346" rx="8" transform="matrix(1, 0, 0, 1, 0, 0)"/>
    </mask>
    <rect width="350" height="346" rx="8" transform="matrix(1, 0, 0, 1, 0, 0)" fill="#E8EAF6" fill-rule="nonzero"/>
    <g mask="url(#b)">
      <path fill="#242A45" d="M-3.53.197h547v59h-547z"/>
      <g transform="translate(22.47 14.197)" fill="#FFF">
        <circle cx="16" cy="16" r="16" opacity=".245"/>
        <g transform="translate(47 6)">
          <rect width="120" height="6" opacity=".75" rx="3"/>
          <rect width="64" height="6" y="14" opacity=".25" rx="3"/>
        </g>
      </g>
    </g>
    <rect width="237" height="34" x="27" y="85" fill="#FFF" rx="8"/>
    <rect width="237" height="34" x="27" y="133" fill="#FFF" rx="8"/>
    <rect width="237" height="34" x="27" y="181" fill="#FFF" rx="8"/>
    <rect width="237" height="34" x="27" y="229" fill="#FFF" rx="8"/>
    <rect width="237" height="34" x="27" y="277" fill="#FFF" rx="8"/>
    <g transform="matrix(-1 0 0 1 440 83)">
      <mask id="d" fill="#fff">
        <path d="M0 .048h349.781V296H0z" transform="matrix(1, 0, 0, 1, 0, 0)"/>
      </mask>
      <path fill="#3A499E" d="M348.707 250.34c-.67 2.018-1.715 3.998-3.174 5.935-25.202 33.474-119.376 44.632-212.224 37.814-48.476-3.562-82.67-24.526-104.281-43.75a175.95 175.95 0 0 1-13.36-13.222c-4.669-5.145-8.313-10.86-10.91-16.895-7.647-17.778-6.174-38.316 5.123-55.161 9.577-14.276 22.722-24.824 29.513-36.543C52.326 106.2-16.043 49.782 28.448 14.138 44.152 1.554 77.608-1.35 114.11.602c44.428 2.378 93.365 11.955 120.284 20.045 55.712 16.737 90.58 40.98 98.539 68.256 7.958 27.276-13.311 39.618-31.88 65.654-17.495 24.526 58.553 62.997 47.654 95.783" mask="url(#d)"/>
      <g transform="translate(2 2)">
        <mask id="f" fill="#fff">
          <path d="M0 .048h157.825v219.844H0z" transform="matrix(1, 0, 0, 1, 0, 0)"/>
        </mask>
        <path fill="#FFF" d="M157.066 52.186C148.954 92.345 11.06 153.876 4.43 219.892c-7.118-17.752-5.747-38.258 4.77-55.078 8.914-14.255 21.15-24.787 27.471-36.489C48.71 106.043-14.934 49.707 26.481 14.117 41.1 1.552 72.242-1.348 106.221.602c10.344 2.364 58.164 15.331 50.845 51.584" mask="url(#f)" opacity=".152"/>
      </g>
      <path fill="#000" d="M351.82 243c.985 7.866-2.34 13.336-3.64 15.227-22.429 32.672-144.494 43.563-227.13 36.908-43.146-3.476-78.505-25.715-100.05-50.22L351.82 243z" opacity=".149"/>
      <path fill="#000" d="M73.627 246.812s-10.077.61-9.922 3.66c.155 3.05 6.511 9.758 6.511 9.758l-9.509-3.405L32 255.732l3.1 2.669s23.127 1.067 24.16 1.88c1.034.813 14.264 10.776 16.537 11.182 2.274.407 146.688.225 146.688.225s14.858.589 17.339-3.986c2.48-4.574 11.472-4.27 13.953-.305 2.48 3.965 2.136 18.603 2.136 18.603s6.793-1.773 7.166-1.931C286.644 274.106 313 243 313 243l-239.373 3.812z" opacity=".128"/>
      <path fill="#FFF" d="M212.329 270H83.67c-4.789 0-8.671-3.908-8.671-8.73V40.73c0-4.822 3.882-8.73 8.671-8.73H212.33c4.789 0 8.671 3.908 8.671 8.73v220.54c0 4.822-3.882 8.73-8.671 8.73"/>
      <path fill="#E4DCF1" d="M213 63.29v88.42c0 1.818-1.456 3.29-3.253 3.29H86.253c-1.797 0-3.253-1.472-3.253-3.29V63.29c0-1.818 1.456-3.29 3.253-3.29h123.494c1.797 0 3.253 1.472 3.253 3.29"/>
      <path fill="#F4F2F9" d="M209.833 33.013L77 219.239v42.244c0 4.704 3.7 8.517 8.263 8.517h120.164c5.287 0 9.573-4.418 9.573-9.869V36.827c0-2.929-2.33-3.956-5.167-3.814" opacity=".184"/>
      <path d="M109.649 181H87.35c-1.298 0-2.351-1.072-2.351-2.394v-3.212c0-1.322 1.053-2.394 2.351-2.394h22.298c1.298 0 2.351 1.072 2.351 2.394v3.212c0 1.322-1.053 2.394-2.351 2.394m32 0H119.35c-1.298 0-2.351-1.072-2.351-2.394v-3.212c0-1.322 1.053-2.394 2.351-2.394h22.298c1.298 0 2.351 1.072 2.351 2.394v3.212c0 1.322-1.053 2.394-2.351 2.394m34 0H153.35c-1.298 0-2.351-1.072-2.351-2.394v-3.212c0-1.322 1.053-2.394 2.351-2.394h22.297c1.299 0 2.352 1.072 2.352 2.394v3.212c0 1.322-1.053 2.394-2.352 2.394m32 0h-22.297c-1.298 0-2.351-1.072-2.351-2.394v-3.212c0-1.322 1.053-2.394 2.351-2.394h22.298c1.298 0 2.351 1.072 2.351 2.394v3.212c0 1.322-1.053 2.394-2.351 2.394" style="fill: rgb(232, 160, 83);"/>
      <path fill="#F4F2F9" d="M205.453 200H87.547C86.14 200 85 198.92 85 197.59v-3.18c0-1.33 1.14-2.41 2.547-2.41h117.906c1.407 0 2.547 1.08 2.547 2.41v3.18c0 1.33-1.14 2.41-2.547 2.41M87.547 216C86.14 216 85 214.92 85 213.59v-3.18c0-1.33 1.14-2.41 2.547-2.41h117.906c1.407 0 2.547 1.08 2.547 2.41v3.18c0 1.33-1.14 2.41-2.547 2.41H87.547zm117.906 16H87.547C86.14 232 85 230.92 85 229.59v-3.18c0-1.33 1.14-2.41 2.547-2.41h117.906c1.407 0 2.547 1.08 2.547 2.41v3.18c0 1.33-1.14 2.41-2.547 2.41m0 13H87.547C86.14 245 85 243.92 85 242.59v-3.18c0-1.33 1.14-2.41 2.547-2.41h117.906c1.407 0 2.547 1.08 2.547 2.41v3.18c0 1.33-1.14 2.41-2.547 2.41"/>
      <path fill="#E4DCF1" d="M101.648 56H84.352C83.053 56 82 54.657 82 53s1.053-3 2.352-3h17.296c1.299 0 2.352 1.343 2.352 3s-1.053 3-2.352 3"/>
      <path fill="#CEC3E2" d="M112 96c0 10.492-8.048 19-17.973 19-4.156 0-7.981-1.491-11.027-3.996V80.996C86.046 78.49 89.87 77 94.027 77 103.952 77 112 85.508 112 96"/>
      <path fill="#C3B8D8" d="M112 96.5c0 10.216-7.493 18.5-16.734 18.5-3.87 0-7.43-1.452-10.266-3.89V81.89C87.835 79.453 91.397 78 95.266 78 104.507 78 112 86.284 112 96.5"/>
    </g>
  </g>
  <g transform="matrix(0.138961, 0, 0, 0.143256, 226.94017, 158.821579)" style="">
    <path d="M336.319,383.828v-20.271h58.715c2.403,0,4.354-1.949,4.354-4.354v-42.03c0-2.406-1.951-4.354-4.354-4.354h-58.715V292.54 c0-1.763-1.06-3.351-2.688-4.022c-1.627-0.674-3.5-0.301-4.745,0.942l-45.644,45.646c-0.817,0.818-1.274,1.927-1.274,3.08 c0,1.156,0.457,2.265,1.274,3.082l45.644,45.644c1.245,1.246,3.118,1.619,4.745,0.942 C335.26,387.178,336.319,385.592,336.319,383.828z" style="fill: rgb(10, 37, 137);"/>
    <path d="M437.611,251.031c-21.055-23.39-49.625-38.345-80.609-42.233c-1.065-2.063-2.75-5.075-3.217-5.886l-1.243-2.21 c4.803-7.346,7.231-14.976,7.231-22.706v-45.049c0-6.655-1.842-13.343-5.433-19.794l-0.382-0.74 c1.378-3.479,2.051-6.759,2.051-9.989c0-18.264-17.518-33.649-50.654-44.494c-28.225-9.236-66.5-14.534-105.018-14.534 c-38.524,0-76.809,5.298-105.029,14.535c-33.14,10.847-50.654,26.235-50.654,44.506c0,3.216,0.672,6.492,2.051,9.977l-0.355,0.665 c-3.613,6.55-5.444,13.235-5.444,19.869v45.049c0,7.769,2.43,15.387,7.229,22.672l-1.27,2.218 c-3.955,6.864-5.961,13.865-5.961,20.808v45.057c0,7.564,2.306,15.01,6.858,22.146l-0.897,1.557 c-3.955,6.863-5.961,13.855-5.961,20.777v45.086c0,20.595,16.714,39.564,47.063,53.419c29.609,13.517,69.519,20.959,112.37,20.959 c15.734,0,31.619-1.099,47.242-3.267c24.756,25.273,57.755,39.174,93.096,39.174c71.914,0,130.42-58.504,130.42-130.418 C471.096,305.969,459.204,275.016,437.611,251.031z M101.745,79.48c25.964-8.614,60.979-13.358,98.594-13.358 c37.6,0,72.61,4.747,98.589,13.366c23.715,7.869,34.328,17.197,34.328,22.95c0,5.772-10.613,15.123-34.33,22.998 c-25.966,8.622-60.978,13.37-98.587,13.37c-37.618,0-72.634-4.748-98.593-13.37c-23.706-7.873-34.315-17.225-34.315-22.998 C67.43,96.678,78.039,87.345,101.745,79.48z M63.664,146.543c25.852,17.886,78.278,29.229,136.675,29.229 c58.354,0,110.794-11.347,136.696-29.238v31.482c0,11.605-13.886,24.415-37.146,34.264c-26.483,11.216-61.838,17.394-99.552,17.394 c-37.71,0-73.061-6.178-99.54-17.393c-23.253-9.849-37.135-22.658-37.135-34.265L63.664,146.543L63.664,146.543z M200.338,409.913 c-37.7,0-73.053-6.174-99.541-17.386c-23.252-9.84-37.134-22.631-37.134-34.211v-35.94c27.988,21.765,79.421,35.091,136.675,35.091 c3.862,0,7.634-0.185,11.293-0.383c2.663,18.215,9.263,35.825,19.231,51.372C220.714,409.424,210.471,409.913,200.338,409.913z M211.538,319.954c-3.623,0.218-7.355,0.421-11.2,0.421c-37.705,0-73.057-6.175-99.54-17.389 c-23.252-9.846-37.135-22.645-37.135-34.236v-35.963c27.93,21.775,79.359,35.111,136.675,35.111 c10.018,0,20.409-0.534,31.598-1.627C221.23,282.42,214.234,300.811,211.538,319.954z M340.676,436.741 c-54.343,0-98.554-44.213-98.554-98.556c0-54.342,44.211-98.552,98.554-98.552c54.346,0,98.557,44.21,98.557,98.552 C439.232,392.528,395.021,436.741,340.676,436.741z" style="fill: rgb(10, 37, 137);"/>
  </g>
  <g transform="matrix(0.138238, 0, 0, 0.132919, 297.670166, 168.030121)" style="">
    <g>
      <path d="M339.588,314.529c-14.215,0-27.456,4.133-38.621,11.239l-112.682-78.67c1.809-6.315,2.798-12.976,2.798-19.871 c0-6.896-0.989-13.557-2.798-19.871l109.64-76.547c11.764,8.356,26.133,13.286,41.662,13.286c39.79,0,72.047-32.257,72.047-72.047 C411.634,32.258,379.378,0,339.588,0c-39.79,0-72.047,32.257-72.047,72.047c0,5.255,0.578,10.373,1.646,15.308l-112.424,78.491 c-10.974-6.759-23.892-10.666-37.727-10.666c-39.79,0-72.047,32.257-72.047,72.047s32.256,72.047,72.047,72.047 c13.834,0,26.753-3.907,37.727-10.666l113.292,79.097c-1.629,6.017-2.514,12.34-2.514,18.872c0,39.79,32.257,72.047,72.047,72.047 c39.79,0,72.047-32.257,72.047-72.047C411.635,346.787,379.378,314.529,339.588,314.529z" style="fill: rgb(17, 56, 164);"/>
    </g>
  </g>
</svg>
